<svg xmlns="http://www.w3.org/2000/svg" viewBox="0 0 200 200" width="100%" height="100%">
  <defs>
    <linearGradient id="beamGrad" x1="0%" y1="0%" x2="100%" y2="100%">
      <stop offset="0%" stop-color="#3b82f6" />
      <stop offset="100%" stop-color="#1d4ed8" />
    </linearGradient>
    <linearGradient id="forceGrad" x1="0%" y1="0%" x2="0%" y2="100%">
      <stop offset="0%" stop-color="#f59e0b" />
      <stop offset="100%" stop-color="#b45309" />
    </linearGradient>
  </defs>

  <circle cx="100" cy="100" r="90" fill="none" stroke="#3b82f6" stroke-width="2" stroke-dasharray="8 4" opacity="0.4"/>
  <circle cx="100" cy="100" r="75" fill="none" stroke="#3b82f6" stroke-width="1" opacity="0.2"/>

  <path d="M 70 50 H 130 V 70 H 110 V 130 H 130 V 150 H 70 V 130 H 90 V 70 H 70 V 50 Z" fill="url(#beamGrad)" />

  <path d="M 40 70 A 50 50 0 0 0 40 130" fill="none" stroke="url(#forceGrad)" stroke-width="6" stroke-linecap="round" />
  <polygon points="30,125 50,125 40,140" fill="#f59e0b" />

  <path d="M 160 130 A 50 50 0 0 0 160 70" fill="none" stroke="url(#forceGrad)" stroke-width="6" stroke-linecap="round" />
  <polygon points="150,75 170,75 160,60" fill="#f59e0b" />
</svg>